<?xml version="1.0" encoding="UTF-8" standalone="no"?>
<svg
   xmlns:dc="http://purl.org/dc/elements/1.1/"
   xmlns:cc="http://creativecommons.org/ns#"
   xmlns:rdf="http://www.w3.org/1999/02/22-rdf-syntax-ns#"
   xmlns:svg="http://www.w3.org/2000/svg"
   xmlns="http://www.w3.org/2000/svg"
   xmlns:sodipodi="http://sodipodi.sourceforge.net/DTD/sodipodi-0.dtd"
   xmlns:inkscape="http://www.inkscape.org/namespaces/inkscape"
   width="217.72948mm"
   height="34.020657mm"
   viewBox="0 0 217.72948 34.020656"
   version="1.1"
   id="svg8"
   inkscape:version="1.0.1 (3bc2e813f5, 2020-09-07)"
   sodipodi:docname="lmrdlogo.svg">
  <defs
     id="defs2" />
  <sodipodi:namedview
     id="base"
     pagecolor="#ffffff"
     bordercolor="#666666"
     borderopacity="1.0"
     inkscape:pageopacity="0.0"
     inkscape:pageshadow="2"
     inkscape:zoom="0.49497475"
     inkscape:cx="418.54589"
     inkscape:cy="72.244713"
     inkscape:document-units="mm"
     inkscape:current-layer="layer1"
     inkscape:document-rotation="0"
     showgrid="false"
     inkscape:window-width="1278"
     inkscape:window-height="1055"
     inkscape:window-x="1280"
     inkscape:window-y="0"
     inkscape:window-maximized="0"
     fit-margin-top="5"
     fit-margin-left="5"
     fit-margin-right="5"
     fit-margin-bottom="5" />
  <metadata
     id="metadata5">
    <rdf:RDF>
      <cc:Work
         rdf:about="">
        <dc:format>image/svg+xml</dc:format>
        <dc:type
           rdf:resource="http://purl.org/dc/dcmitype/StillImage" />
        <dc:title></dc:title>
      </cc:Work>
    </rdf:RDF>
  </metadata>
  <g
     inkscape:label="Layer 1"
     inkscape:groupmode="layer"
     id="layer1"
     transform="translate(3.874079,-130.15936)">
    <path
       style="fill:#23221f;stroke:none;stroke-width:0.186296"
       d="m 64.709262,135.15946 v 8.454 c -0.801296,-0.80803 -1.62318,-1.40154 -2.709515,-1.68328 -10.444092,-2.70871 -9.888281,20.19698 0,16.74717 1.185142,-0.41349 2.027079,-1.2754 2.890147,-2.19073 l 0.180642,2.11348 h 2.167612 v -23.24851 l -2.528879,-0.19223 m 43.713491,0.19223 v 23.24851 h 2.52887 v -8.45399 c 0,-1.07199 -0.27529,-2.67022 0.18561,-3.65062 0.91581,-1.94823 4.16725,-3.8197 5.8551,-1.85596 0.92301,1.07389 0.64268,2.82613 0.64268,4.16161 v 9.79896 h 2.52887 v -9.0304 c 0,-1.76897 0.1933,-3.68391 -0.38021,-5.37984 -1.46189,-4.32222 -6.67391,-2.24681 -8.83213,0 v -9.0304 l -2.52889,0.19221 m 17.70216,0 v 23.24853 h 2.16762 l 0.1807,-1.72924 c 2.70789,2.85478 7.08807,2.84708 9.11751,-0.96067 1.65227,-3.10031 1.72272,-8.42683 0.0293,-11.52818 -1.78034,-3.26025 -7.00735,-3.76255 -8.78553,-0.19222 h -0.18071 v -9.03039 l -2.52889,0.19218 m 80.20161,-0.19218 v 8.45399 c -0.802,-0.80804 -1.62389,-1.40155 -2.70951,-1.68329 -10.44426,-2.70869 -9.8879,20.19699 0,16.74718 1.18498,-0.4135 2.0267,-1.27541 2.89016,-2.19075 l 0.1807,2.1135 h 2.16762 V 135.3516 l -2.52891,-0.19221 M 1.125921,135.3516 v 2.11352 h 4.6964902 v 13.64169 c 0,2.00496 -0.3381645,4.43104 0.8651305,6.1407 1.7353165,2.46546 5.0984203,1.76608 7.4440453,0.96836 l -0.541902,-1.92139 c -1.560518,0.38062 -3.562938,1.21106 -4.7988023,-0.40502 C 7.8243829,154.62561 8.351291,151.69514 8.351291,150.14614 V 135.3516 h -7.22537 m 19.508503,8.45402 -0.180644,-1.72923 h -1.986976 v 16.52374 h 2.348244 c 0,-3.97242 -0.504511,-8.36813 0.02601,-12.29674 0.159862,-1.18319 1.609273,-2.83003 2.854203,-2.37413 1.21892,0.4464 0.913106,2.477 0.913106,3.52694 v 11.14393 h 2.348246 c 0,-3.95111 -0.543529,-8.39656 0.02673,-12.29674 0.173943,-1.18927 1.813208,-2.85484 3.034114,-2.37887 1.254324,0.48891 0.913105,2.62623 0.913105,3.72383 v 10.95178 h 2.348244 v -9.41469 c 0,-1.76263 0.179554,-3.67266 -0.324418,-5.37982 -0.912023,-3.0886 -4.790782,-2.45408 -5.99778,0 h -0.361267 c -0.992767,-3.55301 -4.326733,-1.84801 -5.960932,0 m 22.03738,2.1135 h -0.180642 l -0.361269,-3.84273 h -4.335222 v 2.1135 h 2.348246 v 12.29674 h -2.348246 v 2.1135 h 8.128541 v -2.1135 h -3.251418 c 0,-4.37919 -0.699773,-12.02135 5.238397,-12.29674 v 3.45846 h 1.986977 l 0.361268,-5.57196 c -3.204633,-0.7032 -6.469598,0.0892 -7.586641,3.84273 m 30.707829,-3.2663 0.541902,1.92134 c 2.408035,-0.3449 6.790584,-2.12304 7.670994,1.72923 0.169078,0.73967 0.09628,1.55026 0.09628,2.30565 -1.693626,0 -3.384003,-0.0483 -5.057756,0.28122 -0.938579,0.18473 -1.940917,0.55663 -2.708795,1.17075 -0.590672,0.47227 -1.106383,1.09191 -1.40714,1.81435 -2.464934,5.92183 6.570933,10.12903 9.173691,4.99555 h 0.36127 c 0.631136,1.29038 1.590486,1.82433 2.890147,2.11349 l 0.541903,-1.72922 c -1.508656,-1.25293 -1.26444,-2.74545 -1.26444,-4.61129 0,-3.98984 0.908232,-9.71497 -3.973954,-10.70937 -0.895765,-0.18245 -1.796948,-0.30245 -2.709513,-0.20969 -1.424482,0.14456 -2.783033,0.51408 -4.154587,0.92807 m 17.882792,12.48887 c -1.566461,2.22361 0.26788,3.02443 2.348248,3.52281 2.519486,0.6035 6.2299,0.49879 8.032449,-1.81145 0.513,-0.65789 0.77239,-1.44123 0.8114,-2.28778 0.20076,-4.35632 -3.172121,-4.91946 -6.314955,-6.08981 -1.096458,-0.40831 -2.686215,-1.11607 -2.531604,-2.63787 0.26662,-2.62316 4.19812,-2.20488 5.783016,-1.558 0.524737,0.21423 1.200843,0.78514 1.787553,0.68004 0.63618,-0.11399 0.91218,-0.98645 1.10258,-1.53829 -2.432784,-1.568 -5.357792,-2.18998 -8.128536,-1.30459 -2.431523,0.77696 -3.947946,3.31331 -2.851496,5.91513 1.407141,3.33931 5.93601,2.11215 8.01872,4.48311 1.494742,1.70156 -0.0589,3.64423 -1.735166,4.13305 -2.453924,0.71552 -4.150441,-0.66058 -6.322209,-1.50635 m 57.622317,-13.36521 c -8.58391,1.43661 -7.41484,18.66684 1.80636,17.12357 8.57451,-1.43505 7.42766,-18.66902 -1.80636,-17.12357 m 13.00566,0.87634 0.54192,1.92135 c 2.40803,-0.34489 6.7906,-2.12304 7.67101,1.72923 0.16918,0.73967 0.0962,1.55023 0.0962,2.30565 -1.6938,0 -3.38401,-0.0483 -5.05776,0.28122 -0.93858,0.18473 -1.94092,0.55662 -2.70878,1.17075 -0.59068,0.47227 -1.10639,1.09191 -1.40714,1.81435 -2.46493,5.92183 6.57094,10.12904 9.17368,4.99555 h 0.36127 c 0.63115,1.29036 1.59049,1.82433 2.89016,2.1135 l 0.5419,-1.72926 c -1.50868,-1.2529 -1.26446,-2.74542 -1.26446,-4.61126 0,-3.98984 0.90826,-9.71498 -3.97393,-10.70937 -0.89578,-0.18245 -1.79695,-0.30245 -2.7095,-0.20968 -1.4245,0.14456 -2.78305,0.51408 -4.15461,0.92805 m 22.39864,3.26632 h -0.1807 l -0.36125,-3.84271 h -4.33522 v 2.11348 h 2.34823 v 12.29673 h -2.34803 v 2.11351 h 8.12855 v -2.11351 h -3.25141 c 0,-4.37918 -0.69906,-12.02135 5.23838,-12.29673 v 3.45845 h 1.98698 l 0.36126,-5.57193 c -3.20444,-0.7032 -6.4703,0.0892 -7.58662,3.84271 M 60.554651,143.8634 c 1.403169,-0.21809 3.288991,0.43756 3.968898,1.8643 0.46405,0.97373 0.185697,2.58288 0.185697,3.64986 0,3.08707 0.45339,6.96168 -3.432052,7.45759 -5.664149,0.72281 -5.83846,-12.17641 -0.722538,-12.97175 m 71.350544,0.005 c 1.90172,-0.3521 3.29385,0.95703 3.83413,2.8189 0.88601,3.05304 0.91345,9.40797 -2.93097,10.12 -1.41328,0.26191 -3.29061,-0.43343 -3.9689,-1.85891 -0.46368,-0.97432 -0.18561,-2.58232 -0.18561,-3.64981 0,-3.04017 -0.46804,-6.74153 3.25142,-7.43018 m 17.16025,0 c 6.05919,-1.13012 6.61699,11.97439 1.44504,12.9389 -6.05592,1.12959 -6.61734,-11.97419 -1.44504,-12.9389 m 53.10647,-0.005 c 1.40352,-0.21809 3.28934,0.43756 3.96853,1.8643 0.46423,0.97374 0.18604,2.58288 0.18604,3.64986 0,3.08707 0.45341,6.96168 -3.43203,7.45759 -5.6647,0.72281 -5.83809,-12.17641 -0.72254,-12.97175 m -120.483061,6.47482 c 0,1.31864 0.24458,2.94606 -0.05743,4.22702 -0.53829,2.28335 -4.202636,3.26459 -5.884523,1.94941 -1.607643,-1.25732 -1.187309,-4.36822 0.343206,-5.46493 0.57496,-0.41214 1.308876,-0.56202 1.986074,-0.65595 1.181167,-0.1634 2.423029,-0.0555 3.612683,-0.0555 m 88.510801,0 c 0,1.31864 0.24458,2.94606 -0.0574,4.22701 -0.5383,2.28335 -4.20264,3.26459 -5.88452,1.94942 -1.60765,-1.25734 -1.1873,-4.36823 0.34322,-5.46493 0.57492,-0.41214 1.30883,-0.56203 1.98606,-0.65597 1.18097,-0.16339 2.42301,-0.0555 3.61267,-0.0555 z"
       id="path76" />
  </g>
</svg>
